<svg width="24" height="29" viewBox="0 0 24 29" fill="none" xmlns="http://www.w3.org/2000/svg">
<path fill-rule="evenodd" clip-rule="evenodd" d="M12.83 2.87093L17.21 10.6533H22C22.55 10.6533 23 11.1871 23 11.8396L22.97 12.1599L20.43 23.1573C20.19 24.1538 19.42 24.8893 18.5 24.8893H5.5C4.58 24.8893 3.81 24.1538 3.58 23.1573L1.04 12.1599C1.01 12.0532 1 11.9464 1 11.8396C1 11.1871 1.45 10.6533 2 10.6533H6.79L11.17 2.8828C11.36 2.53876 11.68 2.37267 12 2.37267C12.32 2.37267 12.64 2.53876 12.83 2.87093ZM12 5.43342L9 10.6533H15L12 5.43342Z" fill="#353C69"/>
</svg>
