<?xml version="1.0" encoding="UTF-8"?>
<!-- Generator: Adobe Illustrator 16.0.0, SVG Export Plug-In . SVG Version: 6.00 Build 0)  -->
<svg xmlns="http://www.w3.org/2000/svg" xmlns:xlink="http://www.w3.org/1999/xlink" version="1.1" id="Layer_1" x="0px" y="0px" width="512" height="512" viewBox="0 0 100 100" xml:space="preserve">
<g>
	<g>
		<g>
			<path fill="rgb(0,0,0)" d="M49.292,41.891c4.77,0,8.65,3.881,8.65,8.652c0,0.072-0.003,0.144-0.006,0.215l2.498,0.064     c0.002-0.093,0.004-0.187,0.004-0.28c0-6.146-5-11.147-11.146-11.147c-0.104,0-0.207,0.001-0.309,0.004l0.038,2.499     C49.111,41.896,49.201,41.891,49.292,41.891z"/>
		</g>
		<g>
			<path fill="rgb(0,0,0)" d="M49.292,35.153c8.485,0,15.389,6.904,15.389,15.39c0,0.129-0.002,0.259-0.005,0.388l2.494,0.064     c0.005-0.15,0.006-0.301,0.006-0.452c0-9.862-8.022-17.885-17.884-17.885c-0.138,0-0.276,0.002-0.414,0.005l0.039,2.495     C49.042,35.156,49.166,35.153,49.292,35.153z"/>
		</g>
		<g>
			<path fill="rgb(0,0,0)" d="M49.292,28.496c12.157,0,22.047,9.89,22.047,22.047c0,0.187-0.003,0.373-0.007,0.558l2.494,0.064     c0.006-0.207,0.009-0.415,0.009-0.622C73.835,37.01,62.824,26,49.292,26c-0.172,0-0.344,0.003-0.517,0.007l0.039,2.495     C48.973,28.499,49.133,28.496,49.292,28.496z"/>
		</g>
	</g>
	<path fill-rule="evenodd" clip-rule="evenodd" fill="rgb(0,0,0)" d="M74.393,62.925c-8.163-6.725-10.529-3.531-14.247,0.101   c-2.718,2.654-9.101-2.978-14.679-8.69c-5.488-5.796-10.781-12.489-8.245-14.965c3.897-3.629,7.236-5.827,0.709-14.148   c-6.352-8.317-10.907-2.099-14.533,1.441c-4.168,4.071-0.59,19.524,14.274,35.109c15.137,15.5,30.408,19.712,34.665,15.732   C75.963,73.964,82.375,69.648,74.393,62.925L74.393,62.925z"/>
</g>
</svg>
